<svg id="Layer_1" data-name="Layer 1" xmlns="http://www.w3.org/2000/svg" viewBox="0 0 106.91 106.28"><defs><style>.cls-1{fill:#00a9ce;}</style></defs><path class="cls-1" d="M53.47,5.7a1.74,1.74,0,0,1,1.1.6c18.4,16,32.5,28.2,45.6,39.6.7.6,1,1.1,1,1.4a2.88,2.88,0,0,1-.9,1.3c-5.8,5.1-11.7,10.2-17.5,15.2l-3.4,3-1,.9c-7.9,6.8-15.7,13.6-23.6,20.5-.7.6-1,.6-1.2.6h-.3c-.1,0-.4,0-1.2-.7-8.6-7.5-17.1-14.9-25.7-22.3l-1.8-1.5-7.4-6.4c-1.1-1-2.2-1.9-3.4-2.9l-.2-.2-7-6.1a2.15,2.15,0,0,1-.9-1.3,1.62,1.62,0,0,1,.7-1c13.8-12,28.4-24.8,46-40a1.51,1.51,0,0,1,1.1-.7m0-5.7a7.1,7.1,0,0,0-4.7,1.9c-17.7,15.3-32.4,28.1-46.1,40a7,7,0,0,0-2.6,5.3,7.62,7.62,0,0,0,2.8,5.6c2.3,2.1,4.7,4.1,7,6.1,1.2,1,2.4,2.1,3.6,3.1l7.4,6.4,27.5,23.9a7.18,7.18,0,0,0,4.9,2.1h.3a7,7,0,0,0,4.9-2c8.2-7.1,16.4-14.2,24.5-21.3C90,65,97,59,104,52.9a7.23,7.23,0,0,0,2.9-5.5,7.76,7.76,0,0,0-2.9-5.7c-13.2-11.6-27.3-23.8-45.7-39.8A7.34,7.34,0,0,0,53.47,0Z"/><path class="cls-1" d="M3.37,65.3l4.6,4c13.2,11.4,26.3,22.8,39.5,34.2,4.3,3.7,7.7,3.7,12,0,7.1-6.2,14.3-12.4,21.4-18.6l7.9-6.8,4.8-4.2c3.6-3.1,7.2-6.2,10.8-9.4a6.85,6.85,0,0,0,2.3-7.1.8.8,0,0,0-1.3-.4c-.2.1-.3.3-.5.4L92,68.6c-10.3,8.9-20.6,17.9-30.9,26.8-4.7,4.1-10.5,4.1-15.3-.1-6.4-5.5-12.7-11-19-16.5L1.57,56.9a.78.78,0,0,0-1.3.4C-.53,60.2.47,62.8,3.37,65.3Z"/><path class="cls-1" d="M43.38,60.77a4.38,4.38,0,0,1-2.21.3l-.17,0L40.53,61l-.24-.05-.56-.19-.12,0a6.38,6.38,0,0,1-.71-.33l0,0,0,0a6.19,6.19,0,0,1-.66-.42.39.39,0,0,1-.1-.08,5.72,5.72,0,0,1-.46-.37l-.17-.18a3.49,3.49,0,0,1-.32-.35L37,58.77a4.48,4.48,0,0,1-.91-2c-.22-1.56-.07-3.19,3.69-10S44.86,39,46.3,38.34A4.46,4.46,0,0,1,48.44,38h.07a4.28,4.28,0,0,1,.59.1l.23,0c.19.05.37.11.56.18l.15.06a8.11,8.11,0,0,1,.74.34l0,0,0,0a6.61,6.61,0,0,1,.68.44l.13.1a5.63,5.63,0,0,1,.45.38l.17.16q.21.22.39.45l.05.06a4.39,4.39,0,0,1,.87,2,5.41,5.41,0,0,1-.12,2.21.72.72,0,0,0,.35.81l5.75,3.16a.72.72,0,0,0,1.06-.49c1.37-6.45-1.54-11.53-6.87-14.48a13.1,13.1,0,0,0-10.66-1.4c-5,1.43-7.24,5.45-10.18,10.75s-5.17,9.32-3.73,14.34A13.08,13.08,0,0,0,36,65.57c5.27,2.93,11,2.74,15.77-1.7a.73.73,0,0,0-.14-1.17l-5.73-3.18a.73.73,0,0,0-.86.12A5.43,5.43,0,0,1,43.38,60.77Z"/><path class="cls-1" d="M61.89,31.92a4.51,4.51,0,0,1,2.21-.3l.17,0a3.89,3.89,0,0,1,.47.09l.24.06c.19.05.37.11.56.18l.12.05a5.73,5.73,0,0,1,.71.34h0l0,0a5.32,5.32,0,0,1,.66.42l.11.08a5.63,5.63,0,0,1,.45.38l.18.17c.11.12.22.23.32.35a1.34,1.34,0,0,0,.11.14,4.33,4.33,0,0,1,.91,2c.23,1.56.08,3.18-3.69,10S60.42,53.72,59,54.35a4.23,4.23,0,0,1-2.14.31h-.07a5.81,5.81,0,0,1-.58-.09l-.24-.06-.56-.18-.15-.06a4.78,4.78,0,0,1-.73-.34l0,0,0,0a6.56,6.56,0,0,1-.68-.43l-.12-.1c-.16-.13-.32-.25-.46-.38L53,52.8a5.46,5.46,0,0,1-.39-.45s0,0,0-.05a4.35,4.35,0,0,1-.86-2,5.37,5.37,0,0,1,.11-2.21.73.73,0,0,0-.35-.82l-5.74-3.16a.73.73,0,0,0-1.07.49c-1.37,6.46,1.54,11.53,6.87,14.49a13.14,13.14,0,0,0,10.66,1.4c5-1.44,7.24-5.46,10.18-10.76s5.17-9.32,3.73-14.33a13.09,13.09,0,0,0-6.83-8.3C64,24.2,58.2,24.38,53.48,28.83A.73.73,0,0,0,53.62,30l5.74,3.18a.73.73,0,0,0,.86-.13A5.28,5.28,0,0,1,61.89,31.92Z"/></svg>